<svg preserveAspectRatio="none" xmlns="http://www.w3.org/2000/svg" viewBox="0 0 1700 1057">
	<path class="st0" d="M2358.1,1007.6c0,193.6,21.1,377.8-95,514.8c-144.2,170.1-234.5,373.7-474.9,373.7
		c-235.9,0-450.4-218.5-594.4-383c-121-138.2-279.7-258-279.7-456.2c0-203.5,165.1-347.9,292-487.5
		c143.8-158.1,263.4-298.4,493.9-298.4s535.8,30,679.5,188.1C2506.4,598.8,2358.1,804.1,2358.1,1007.6z">
		<animate attributeName="d" values="M2358.1,1007.6c0,193.6,21.1,377.8-95,514.8c-144.2,170.1-234.5,373.7-474.9,373.7
		c-235.9,0-450.4-218.5-594.4-383c-121-138.2-279.7-258-279.7-456.2c0-203.5,165.1-347.9,292-487.5
		c143.8-158.1,263.4-298.4,493.9-298.4s535.8,30,679.5,188.1C2506.4,598.8,2358.1,804.1,2358.1,1007.6z;
		M2485.9,1057c0,193.6-79.1,328.4-195.2,465.4c-144.2,170.1-350.2,320.5-590.7,320.5c-235.9,0-420.3-174.4-564.4-338.9
		c-121-138.2-221.5-248.8-221.5-447c0-203.5,39.4-446,166.3-585.5c143.8-158.1,389-200.3,619.5-200.3s404,143.3,547.8,301.4C2374.7,712.1,2485.9,853.5,2485.9,1057z;
		M2358.1,1007.6c0,193.6,21.1,377.8-95,514.8c-144.2,170.1-234.5,373.7-474.9,373.7
		c-235.9,0-450.4-218.5-594.4-383c-121-138.2-279.7-258-279.7-456.2c0-203.5,165.1-347.9,292-487.5
		c143.8-158.1,263.4-298.4,493.9-298.4s535.8,30,679.5,188.1C2506.4,598.8,2358.1,804.1,2358.1,1007.6z"
		dur="35s" repeatCount="indefinite" />
	</path>
	<path class="st0" d="M0,1057c0,0,460.6-12.6,694.4-95.3c347.1-122.8,438.1-368.7,643.4-433.2c218.4-68.6,362.2-44.8,362.2-44.8V1057H0z">
		<animate attributeName="d" values="M0,1057c0,0,460.6-12.6,694.4-95.3c347.1-122.8,438.1-368.7,643.4-433.2c218.4-68.6,362.2-44.8,362.2-44.8V1057H0z;
		M0,1057c0,0,420.8-20.3,634.7-145.9c422.8-248.2,279.4-390.6,705.4-442.7c227.2-27.8,359.9,60.1,359.9,60.1V1057H0z;
		M0,1057c0,0,460.6-12.6,694.4-95.3c347.1-122.8,438.1-368.7,643.4-433.2c218.4-68.6,362.2-44.8,362.2-44.8V1057H0z"
		dur="15s" repeatCount="indefinite" />
	</path>
</svg>
