<?xml version="1.0" standalone="no"?>
<!DOCTYPE svg PUBLIC "-//W3C//DTD SVG 20010904//EN"
 "http://www.w3.org/TR/2001/REC-SVG-20010904/DTD/svg10.dtd">
<svg version="1.0" xmlns="http://www.w3.org/2000/svg"
 width="1000.000000pt" height="1000.000000pt" viewBox="0 0 1000.000000 1000.000000"
 preserveAspectRatio="xMidYMid meet">
<metadata>
Created by potrace 1.11, written by Peter Selinger 2001-2013
</metadata>
<g transform="translate(0.000000,1000.000000) scale(0.100000,-0.100000)"
fill="#000000" stroke="none">
<path d="M4660 9989 c-1201 -81 -2350 -605 -3199 -1459 -386 -388 -679 -795
-926 -1285 -592 -1174 -696 -2517 -295 -3780 143 -448 405 -970 679 -1354 487
-680 1097 -1204 1836 -1576 895 -451 1873 -619 2875 -494 938 116 1839 508
2565 1114 809 676 1381 1576 1645 2590 237 909 209 1880 -81 2791 -105 332
-311 778 -496 1077 -685 1104 -1746 1894 -2987 2222 -507 134 -1088 189 -1616
154z m-1665 -4476 c507 -845 569 -944 581 -928 8 10 259 436 560 947 l546 928
224 0 224 0 0 -1435 0 -1435 -255 0 -255 0 -2 946 -3 946 -468 -781 -468 -781
-122 0 -122 0 -465 765 -465 764 -3 -929 -2 -930 -260 0 -260 0 0 1435 0 1435
224 0 223 0 568 -947z m3095 86 c0 -485 4 -859 9 -857 5 2 383 389 842 861
l833 857 175 0 174 0 -24 -26 c-13 -15 -291 -306 -616 -647 -326 -341 -593
-623 -593 -626 0 -3 297 -357 660 -786 l661 -780 -173 -3 c-95 -1 -177 -1
-184 2 -6 2 -264 296 -574 653 -310 356 -571 657 -582 668 -18 19 -22 16 -313
-275 l-295 -295 0 -377 0 -378 -150 0 -150 0 0 1435 0 1435 150 0 150 0 0
-861z"/>
</g>
</svg>
