<svg xmlns="http://www.w3.org/2000/svg" viewBox="0 0 21.82 21.82">
  <defs>
    <style>
      .a {
        stroke: #fff;
        stroke-miterlimit: 10;
        fill: url(#a);
      }

      .b {
        fill: #fff;
      }
    </style>
    <linearGradient id="a" x1="0.5" y1="10.91" x2="21.32" y2="10.91" gradientUnits="userSpaceOnUse">
      <stop offset="0" stop-color="#6523b8"/>
      <stop offset="0.47" stop-color="#8629cc"/>
      <stop offset="1" stop-color="#a72fe0"/>
    </linearGradient>
  </defs>
  <g>
    <rect class="a" x="0.5" y="0.5" width="20.82" height="20.82"/>
    <g>
      <path class="b" d="M9.24,15.68,8,13.57c-.5-.82-.81-1.34-1.11-1.9h0c-.27.56-.54,1.07-1,1.91l-1.16,2.1H3.27L6.2,10.83,3.38,6.1H4.82L6.09,8.35C6.44,9,6.71,9.46,7,10H7c.27-.57.51-1,.87-1.62L9.19,6.1h1.42L7.69,10.76l3,4.92Z"/>
      <path class="b" d="M17.86,5.59v8.32c0,.61,0,1.3.06,1.77H16.8l-.06-1.19h0a2.54,2.54,0,0,1-2.35,1.35c-1.66,0-2.94-1.41-2.94-3.5,0-2.29,1.41-3.69,3.09-3.69a2.28,2.28,0,0,1,2.07,1h0V5.59Zm-1.25,6a1.85,1.85,0,0,0-.06-.52,1.82,1.82,0,0,0-1.8-1.45c-1.3,0-2.06,1.13-2.06,2.66s.68,2.54,2,2.54a2,2,0,0,0,1.89-2Z"/>
    </g>
  </g>
</svg>
