<svg xmlns="http://www.w3.org/2000/svg" viewBox="0 0 21.82 21.82">
  <defs>
    <style>
      .a {
        stroke: #fff;
        stroke-miterlimit: 10;
        fill: url(#a);
      }

      .b {
        fill: #fff;
      }
    </style>
    <linearGradient id="a" x1="0.5" y1="10.91" x2="21.32" y2="10.91" gradientUnits="userSpaceOnUse">
      <stop offset="0" stop-color="#6523b8"/>
      <stop offset="0.47" stop-color="#8629cc"/>
      <stop offset="1" stop-color="#a72fe0"/>
    </linearGradient>
  </defs>
  <g>
    <rect class="a" x="0.5" y="0.5" width="20.82" height="20.82"/>
    <g>
      <path class="b" d="M5.71,12.67l-1,3H3.43L6.69,6.1H8.18l3.28,9.58H10.13l-1-3Zm3.14-1L7.92,8.94c-.22-.62-.36-1.19-.5-1.75h0c-.14.57-.3,1.16-.48,1.74L6,11.7Z"/>
      <path class="b" d="M13.35,12.47a2.21,2.21,0,0,0,2.36,2.39,4.5,4.5,0,0,0,1.9-.36l.22.9a5.57,5.57,0,0,1-2.29.43,3.2,3.2,0,0,1-3.39-3.47c0-2.08,1.23-3.71,3.23-3.71,2.25,0,2.84,2,2.84,3.24a3.91,3.91,0,0,1,0,.58Zm3.67-.9a1.79,1.79,0,0,0-1.74-2,2.08,2.08,0,0,0-1.92,2Z"/>
    </g>
  </g>
</svg>
