<svg xmlns="http://www.w3.org/2000/svg" viewBox="0 0 30.01 26.89">
  <defs>
    <style>
      .a {
        fill: #fff;
      }

      .b {
        fill: none;
        stroke: #fff;
        stroke-miterlimit: 10;
        stroke-width: 1.85px;
      }
    </style>
  </defs>
  <g>
    <g>
      <g>
        <path class="a" d="M5.89,3.77,5.47,5.05H4.92L6.31,1h.63L8.33,5.05H7.77L7.33,3.77Zm1.33-.41L6.83,2.19a7.36,7.36,0,0,1-.22-.74h0c-.06.24-.13.48-.2.73L6,3.36Z" transform="translate(0 -0.91)"/>
        <path class="a" d="M8.85,4.41a1.83,1.83,0,0,0,.94.27c.54,0,.86-.29.86-.7s-.22-.6-.77-.81S8.8,2.59,8.8,2A1.18,1.18,0,0,1,10.12.91a1.87,1.87,0,0,1,.9.2l-.14.43a1.71,1.71,0,0,0-.78-.19c-.55,0-.77.33-.77.61s.25.57.81.78,1,.6,1,1.2-.46,1.17-1.42,1.17a2.07,2.07,0,0,1-1-.26Z" transform="translate(0 -0.91)"/>
        <path class="a" d="M11.9,1a6.33,6.33,0,0,1,1-.08,1.65,1.65,0,0,1,1.14.34,1.1,1.1,0,0,1,.36.85,1.18,1.18,0,0,1-.32.87,1.66,1.66,0,0,1-1.24.45,1.76,1.76,0,0,1-.42,0V5.05H11.9Zm.53,2a1.74,1.74,0,0,0,.43,0c.63,0,1-.3,1-.87s-.38-.79-1-.79a1.87,1.87,0,0,0-.49,0Z" transform="translate(0 -0.91)"/>
        <path class="a" d="M14.12,4.74a.36.36,0,0,1,.36-.38.35.35,0,0,1,.36.38.35.35,0,0,1-.36.38A.36.36,0,0,1,14.12,4.74Z" transform="translate(0 -0.91)"/>
        <path class="a" d="M16.8,5.05V1h.57L18.68,3a14.11,14.11,0,0,1,.73,1.32h0c-.05-.55-.06-1-.06-1.68V1h.49V5.05h-.53L18,3a11.76,11.76,0,0,1-.76-1.36h0c0,.52,0,1,0,1.68V5.05Z" transform="translate(0 -0.91)"/>
        <path class="a" d="M22.88,3.14H21.29V4.61h1.77v.44H20.77V1H23v.44H21.29V2.71h1.59Z" transform="translate(0 -0.91)"/>
        <path class="a" d="M24.61,1.43H23.37V1h3v.45H25.14V5.05h-.53Z" transform="translate(0 -0.91)"/>
      </g>
      <g>
        <path class="a" d="M5.89,3.77,5.47,5.05H4.92L6.3,1h.64L8.33,5.05H7.77L7.33,3.77Zm1.33-.41-.4-1.17c-.09-.27-.15-.51-.21-.74h0c-.06.24-.13.48-.2.73L6,3.36Z" transform="translate(0 -0.91)"/>
        <path class="a" d="M8.85,4.41a1.83,1.83,0,0,0,.94.27c.54,0,.86-.29.86-.7s-.22-.6-.77-.81S8.8,2.59,8.8,2A1.18,1.18,0,0,1,10.12.91a1.87,1.87,0,0,1,.9.2l-.14.43a1.71,1.71,0,0,0-.78-.19c-.55,0-.77.33-.77.61s.25.57.81.78,1,.6,1,1.2-.46,1.17-1.42,1.17a2,2,0,0,1-1-.26Z" transform="translate(0 -0.91)"/>
        <path class="a" d="M11.9,1a6.33,6.33,0,0,1,1-.08,1.65,1.65,0,0,1,1.14.34,1.1,1.1,0,0,1,.36.85,1.18,1.18,0,0,1-.32.87,1.66,1.66,0,0,1-1.24.45,1.76,1.76,0,0,1-.42,0V5.05H11.9Zm.53,2a1.74,1.74,0,0,0,.43,0c.63,0,1-.3,1-.87s-.38-.79-1-.79a1.87,1.87,0,0,0-.49,0Z" transform="translate(0 -0.91)"/>
        <path class="a" d="M14.12,4.74a.36.36,0,0,1,.36-.38.35.35,0,0,1,.36.38.35.35,0,0,1-.36.38A.36.36,0,0,1,14.12,4.74Z" transform="translate(0 -0.91)"/>
        <path class="a" d="M16.8,5.05V1h.57L18.68,3a14.11,14.11,0,0,1,.73,1.32h0c-.05-.55-.06-1-.06-1.68V1h.49V5.05h-.53L18,3a11.76,11.76,0,0,1-.76-1.36h0c0,.52,0,1,0,1.68V5.05Z" transform="translate(0 -0.91)"/>
        <path class="a" d="M22.88,3.14H21.29V4.61h1.77v.44H20.77V1H23v.44H21.29V2.71h1.59Z" transform="translate(0 -0.91)"/>
        <path class="a" d="M24.61,1.43H23.37V1h3v.45H25.14V5.05h-.53Z" transform="translate(0 -0.91)"/>
      </g>
    </g>
    <g>
      <path class="a" d="M17,16.08c0-1,0-1.95-.07-2.78H18.3l.05,1.75h.08a2.67,2.67,0,0,1,2.46-2,1.56,1.56,0,0,1,.46.06v1.53a2.2,2.2,0,0,0-.55-.06,2.27,2.27,0,0,0-2.17,2.08,4.28,4.28,0,0,0-.07.76v4.75H17Z" transform="translate(0 -0.91)"/>
      <path class="a" d="M23.7,18.05a2.85,2.85,0,0,0,3.05,3.09,5.85,5.85,0,0,0,2.47-.46l.28,1.16a7.21,7.21,0,0,1-3,.55,4.14,4.14,0,0,1-4.38-4.49c0-2.69,1.58-4.81,4.18-4.81,2.91,0,3.68,2.56,3.68,4.2a6.2,6.2,0,0,1-.05.76Zm4.75-1.16a2.32,2.32,0,0,0-2.25-2.64,2.69,2.69,0,0,0-2.49,2.64Z" transform="translate(0 -0.91)"/>
    </g>
    <path class="b" d="M16.7,24.13A9.2,9.2,0,1,1,16.45,11" transform="translate(0 -0.91)"/>
    <ellipse class="a" cx="10.07" cy="16.76" rx="3.17" ry="3.44"/>
  </g>
</svg>
