<svg xmlns="http://www.w3.org/2000/svg" viewBox="0 0 10.24 8.31">
  <defs>
    <style>
      .a {
        fill: #fff;
      }
    </style>
  </defs>
  <g>
    <path class="a" d="M7.39,7.28a.23.23,0,0,0,.25.25A.36.36,0,0,0,8,7.29.28.28,0,0,0,8,7.2V7C7.72,7,7.39,7,7.39,7.28Z"/>
    <path class="a" d="M6.82,3.35V0L3.4,3.39V0L0,3.43,0,8.31H10.24V0ZM1.5,7.69l0-.18h0A.55.55,0,0,1,1,7.72a.41.41,0,0,1-.45-.41c0-.35.31-.54.87-.54v0a.29.29,0,0,0-.33-.33.67.67,0,0,0-.37.11L.69,6.34a1,1,0,0,1,.47-.13c.44,0,.55.31.55.6v.53a3.49,3.49,0,0,0,0,.35Zm1.62,0,0-.24h0a.54.54,0,0,1-.48.27c-.23,0-.5-.12-.5-.63V6.25h.26v.8c0,.27.09.46.33.46a.39.39,0,0,0,.34-.24.32.32,0,0,0,0-.14V6.25h.26v1c0,.15,0,.28,0,.39ZM4.46,6.45H4.09v.78c0,.17,0,.28.19.28l.16,0v.19a.47.47,0,0,1-.23,0,.38.38,0,0,1-.29-.11.58.58,0,0,1-.1-.38V6.45H3.61v-.2h.22V5.9l.26-.07v.42h.37Zm.87,1.27A.69.69,0,0,1,4.63,7a.71.71,0,0,1,.72-.77A.69.69,0,0,1,6,7,.7.7,0,0,1,5.33,7.72ZM7,6.25v.2H6.66V7.69H6.4V6.45H6.2v-.2h.2V6.18a.64.64,0,0,1,.17-.5.47.47,0,0,1,.35-.14.62.62,0,0,1,.22,0l0,.21a.39.39,0,0,0-.17,0c-.22,0-.28.2-.28.42v.08ZM8,7.69l0-.18H8a.55.55,0,0,1-.44.21.41.41,0,0,1-.44-.41c0-.35.31-.54.87-.54v0a.3.3,0,0,0-.33-.33.68.68,0,0,0-.38.11l-.06-.18a1,1,0,0,1,.48-.13c.44,0,.55.31.55.6v.53a1.89,1.89,0,0,0,0,.35Zm1.3-.18a.76.76,0,0,0,.32-.07l0,.2a1,1,0,0,1-.41.08A.69.69,0,0,1,8.57,7a.74.74,0,0,1,.78-.76,1,1,0,0,1,.36.07l-.06.21a.55.55,0,0,0-.3-.07A.5.5,0,0,0,8.84,7,.49.49,0,0,0,9.34,7.51Z"/>
    <path class="a" d="M5.34,6.41C5,6.41,4.9,6.7,4.9,7s.18.56.44.56.44-.24.44-.56S5.65,6.41,5.34,6.41Z"/>
    <path class="a" d="M.85,7.28a.23.23,0,0,0,.24.25.36.36,0,0,0,.35-.24.29.29,0,0,0,0-.09V7C1.17,7,.85,7,.85,7.28Z"/>
  </g>
</svg>
