<svg xmlns="http://www.w3.org/2000/svg" viewBox="0 0 14.46 4.36">
  <defs>
    <style>
      .a {
        fill: #fff;
      }
    </style>
  </defs>
  <g>
    <path class="a" d="M2.43,1.65a1.21,1.21,0,0,1,.37,1V4.31H2V4a1,1,0,0,1-.9.41,1.38,1.38,0,0,1-.59-.12.85.85,0,0,1-.38-.32A.78.78,0,0,1,0,3.46a.74.74,0,0,1,.31-.64,1.56,1.56,0,0,1,1-.24H2a.56.56,0,0,0-.17-.43A.78.78,0,0,0,1.27,2a1.84,1.84,0,0,0-.47.07,1.24,1.24,0,0,0-.38.2L.11,1.68a1.83,1.83,0,0,1,.58-.27,2.61,2.61,0,0,1,.69-.09A1.5,1.5,0,0,1,2.43,1.65Zm-.73,2A.57.57,0,0,0,2,3.38v-.3H1.36c-.35,0-.53.12-.53.35A.33.33,0,0,0,1,3.69a.64.64,0,0,0,.36.09A.7.7,0,0,0,1.7,3.68Z"/>
    <path class="a" d="M5.45,4.31l-.65-.9-.67.9H3.2L4.34,2.83,3.24,1.36h1l.62.87.64-.87h.91L5.28,2.81l1.14,1.5Z"/>
    <path class="a" d="M6.88.82A.45.45,0,0,1,6.73.48.43.43,0,0,1,6.88.14a.62.62,0,0,1,.77,0,.42.42,0,0,1,.14.33.45.45,0,0,1-.14.35A.52.52,0,0,1,7.26,1,.55.55,0,0,1,6.88.82Zm0,.54h.86V4.31H6.83Z"/>
    <path class="a" d="M9.05,4.16a1.51,1.51,0,0,1-.58-.54,1.46,1.46,0,0,1-.2-.78,1.46,1.46,0,0,1,.2-.78,1.51,1.51,0,0,1,.58-.54,1.8,1.8,0,0,1,.84-.2,1.73,1.73,0,0,1,.83.2,1.44,1.44,0,0,1,.58.54,1.46,1.46,0,0,1,.2.78,1.46,1.46,0,0,1-.2.78,1.44,1.44,0,0,1-.58.54,1.73,1.73,0,0,1-.83.2A1.8,1.8,0,0,1,9.05,4.16Zm1.38-.73a.8.8,0,0,0,.21-.59.84.84,0,0,0-.21-.6.77.77,0,0,0-1.08,0,.81.81,0,0,0-.22.6.77.77,0,0,0,.22.59.75.75,0,0,0,1.08,0Z"/>
    <path class="a" d="M12.35,4.27A1.85,1.85,0,0,1,11.79,4l.28-.61a2.1,2.1,0,0,0,.48.2,2.15,2.15,0,0,0,.55.08q.54,0,.54-.27t-.15-.18A1.66,1.66,0,0,0,13,3.17a4.67,4.67,0,0,1-.6-.13A1,1,0,0,1,12,2.79a.74.74,0,0,1-.17-.52A.84.84,0,0,1,12,1.78a1,1,0,0,1,.47-.34,2,2,0,0,1,.74-.12,2.68,2.68,0,0,1,.62.07,1.6,1.6,0,0,1,.51.19l-.28.61A1.68,1.68,0,0,0,13.23,2a.94.94,0,0,0-.42.07.23.23,0,0,0-.13.2.19.19,0,0,0,.15.19,2.53,2.53,0,0,0,.47.11,4.13,4.13,0,0,1,.59.13.78.78,0,0,1,.4.25.7.7,0,0,1,.17.5.79.79,0,0,1-.17.49,1,1,0,0,1-.48.33,2,2,0,0,1-.74.12A2.84,2.84,0,0,1,12.35,4.27Z"/>
  </g>
</svg>
