<svg xmlns="http://www.w3.org/2000/svg" viewBox="0 0 30.01 44.94">
  <defs>
    <style>
      .a, .b {
        fill: #fff;
      }

      .b {
        font-size: 6.04px;
        font-family: MyriadPro-Regular, Myriad Pro;
      }

      .c {
        letter-spacing: -0.14em;
      }

      .d {
        letter-spacing: 0.02em;
      }

      .e {
        fill: none;
        stroke: #fff;
        stroke-miterlimit: 10;
        stroke-width: 1.85px;
      }
    </style>
  </defs>
  <g>
    <g>
      <path class="a" d="M7.4,43.47l.86-.87L7.69,42l-.88.88L5.92,42l-.57.56.88.88-.87.9.56.56L6.81,44l.88.9.58-.58Zm-.58.1-1,1-.09-.1,1-.94-1-1,.09-.09,1,1,.95-1,.1.09-1,1,1,.95-.09.08Z"/>
      <g>
        <path class="a" d="M9.34,41.07v2.19c0,.83.36,1.18.86,1.18s.89-.37.89-1.18V41.07h.49v2.16c0,1.13-.6,1.6-1.4,1.6s-1.33-.44-1.33-1.58V41.07Z"/>
        <path class="a" d="M12.29,42.83c0-.27,0-.5,0-.72h.43l0,.44h0a1,1,0,0,1,.88-.5c.37,0,.94.22.94,1.13v1.59h-.49V43.24c0-.43-.15-.79-.61-.79a.7.7,0,0,0-.65.5.73.73,0,0,0,0,.22v1.6h-.48Z"/>
        <path class="a" d="M15.77,41.37a.3.3,0,0,1-.6,0,.29.29,0,0,1,.3-.3A.29.29,0,0,1,15.77,41.37Zm-.54,3.4V42.11h.49v2.66Z"/>
        <path class="a" d="M17,41.35v.76h.69v.37H17v1.43c0,.33.09.52.36.52a.88.88,0,0,0,.28,0l0,.36a1.12,1.12,0,0,1-.43.07.69.69,0,0,1-.52-.2,1,1,0,0,1-.18-.69V42.48h-.41v-.37h.41v-.63Z"/>
        <path class="a" d="M18,44.48a.32.32,0,0,1,.33-.34.32.32,0,0,1,.32.34.32.32,0,0,1-.33.35A.32.32,0,0,1,18,44.48Z"/>
        <path class="a" d="M19.15,42.83c0-.27,0-.5,0-.72h.43l0,.44h0a1,1,0,0,1,.87-.5c.37,0,.94.22.94,1.13v1.59h-.48V43.24c0-.43-.16-.79-.62-.79a.69.69,0,0,0-.64.5.51.51,0,0,0,0,.22v1.6h-.48Z"/>
        <path class="a" d="M22.36,43.53a.85.85,0,0,0,.91.92,1.7,1.7,0,0,0,.74-.14l.08.35a2.28,2.28,0,0,1-.88.16,1.24,1.24,0,0,1-1.31-1.34,1.29,1.29,0,0,1,1.25-1.43,1.12,1.12,0,0,1,1.09,1.25c0,.1,0,.18,0,.23Zm1.42-.35a.69.69,0,0,0-.67-.78.8.8,0,0,0-.74.78Z"/>
        <path class="a" d="M25.32,41.35v.76H26v.37h-.69v1.43c0,.33.1.52.36.52a.88.88,0,0,0,.28,0l0,.36a1.2,1.2,0,0,1-.43.07.66.66,0,0,1-.52-.2,1,1,0,0,1-.19-.69V42.48h-.41v-.37h.41v-.63Z"/>
      </g>
    </g>
    <g>
      <path class="a" d="M17.88,7.28a.23.23,0,0,0,.25.25.35.35,0,0,0,.34-.24.29.29,0,0,0,0-.09V7C18.2,7,17.88,7,17.88,7.28Z"/>
      <path class="a" d="M17.3,3.35V0L13.88,3.39V0L10.5,3.43V8.31H20.73V0ZM12,7.69l0-.18h0a.53.53,0,0,1-.44.21.41.41,0,0,1-.44-.41c0-.35.31-.54.87-.54v0a.29.29,0,0,0-.33-.33.67.67,0,0,0-.37.11l-.06-.18a.93.93,0,0,1,.47-.13c.44,0,.55.31.55.6v.53a1.89,1.89,0,0,0,0,.35Zm1.63,0,0-.24h0a.52.52,0,0,1-.47.27c-.23,0-.5-.12-.5-.63V6.25h.26v.8c0,.27.09.46.32.46a.39.39,0,0,0,.35-.24.59.59,0,0,0,0-.14V6.25h.27v1c0,.15,0,.28,0,.39ZM15,6.45h-.38v.78c0,.17.06.28.2.28l.15,0,0,.19a.55.55,0,0,1-.24,0,.36.36,0,0,1-.28-.11.58.58,0,0,1-.1-.38V6.45h-.23v-.2h.23V5.9l.25-.07v.42H15Zm.86,1.27A.68.68,0,0,1,15.12,7a.71.71,0,0,1,.72-.77.69.69,0,0,1,.69.75A.7.7,0,0,1,15.81,7.72Zm1.68-1.47v.2h-.34V7.69h-.26V6.45h-.21v-.2h.21V6.18a.67.67,0,0,1,.16-.5.5.5,0,0,1,.36-.14.62.62,0,0,1,.22,0l0,.21a.34.34,0,0,0-.16,0c-.23,0-.28.2-.28.42v.08Zm1,1.44,0-.18h0a.55.55,0,0,1-.44.21.4.4,0,0,1-.44-.41c0-.35.31-.54.86-.54v0a.29.29,0,0,0-.32-.33.68.68,0,0,0-.38.11l-.06-.18a1,1,0,0,1,.47-.13c.44,0,.55.31.55.6v.53a1.83,1.83,0,0,0,0,.35Zm1.3-.18a.84.84,0,0,0,.32-.07l0,.2a1.08,1.08,0,0,1-.41.08A.68.68,0,0,1,19.06,7a.73.73,0,0,1,.77-.76,1,1,0,0,1,.37.07l-.06.21a.56.56,0,0,0-.31-.07.5.5,0,0,0-.51.54A.5.5,0,0,0,19.83,7.51Z"/>
      <path class="a" d="M15.83,6.41c-.31,0-.44.29-.44.56s.18.56.44.56.43-.24.43-.56S16.14,6.41,15.83,6.41Z"/>
      <path class="a" d="M11.33,7.28a.24.24,0,0,0,.25.25.36.36,0,0,0,.35-.24.28.28,0,0,0,0-.09V7C11.66,7,11.33,7,11.33,7.28Z"/>
    </g>
    <g>
      <g>
        <g>
          <path class="a" d="M5.89,14.61l-.42,1.28H4.92L6.3,11.82h.64l1.39,4.07H7.77l-.44-1.28Zm1.33-.41L6.82,13c-.09-.27-.15-.51-.21-.74h0c-.06.24-.13.48-.2.73L6,14.2Z"/>
          <path class="a" d="M8.85,15.25a1.83,1.83,0,0,0,.94.27c.54,0,.86-.29.86-.7s-.22-.59-.77-.81S8.8,13.43,8.8,12.86a1.18,1.18,0,0,1,1.32-1.11,1.87,1.87,0,0,1,.9.2l-.14.43a1.71,1.71,0,0,0-.78-.19c-.55,0-.77.33-.77.61s.25.57.81.78,1,.6,1,1.2S10.72,16,9.76,16a2,2,0,0,1-1-.26Z"/>
          <path class="a" d="M11.9,11.87a6.33,6.33,0,0,1,1-.08,1.65,1.65,0,0,1,1.14.34,1.1,1.1,0,0,1,.36.85,1.18,1.18,0,0,1-.32.87,1.66,1.66,0,0,1-1.24.45,1.76,1.76,0,0,1-.42,0v1.63H11.9Zm.53,2a1.74,1.74,0,0,0,.43,0c.63,0,1-.3,1-.87s-.38-.79-1-.79a2.46,2.46,0,0,0-.49,0Z"/>
          <path class="a" d="M14.12,15.58a.36.36,0,0,1,.36-.38.38.38,0,0,1,0,.76A.36.36,0,0,1,14.12,15.58Z"/>
          <path class="a" d="M16.8,15.89V11.82h.57l1.31,2.06a14.11,14.11,0,0,1,.73,1.32h0c-.05-.55-.06-1-.06-1.68v-1.7h.49v4.07h-.53L18,13.83a11.76,11.76,0,0,1-.76-1.36h0c0,.52,0,1,0,1.68v1.74Z"/>
          <path class="a" d="M22.88,14H21.29v1.47h1.77v.44H20.77V11.82H23v.44H21.29v1.29h1.59Z"/>
          <path class="a" d="M24.61,12.27H23.37v-.45h3v.45H25.14v3.62h-.53Z"/>
        </g>
      </g>
      <g>
        <path class="a" d="M17,26.92c0-1.05,0-2-.07-2.78H18.3l.05,1.75h.08a2.67,2.67,0,0,1,2.46-2,1.56,1.56,0,0,1,.46.06v1.53a2.2,2.2,0,0,0-.55-.06,2.27,2.27,0,0,0-2.17,2.08,4.37,4.37,0,0,0-.07.76v4.75H17Z"/>
        <path class="a" d="M23.7,28.89A2.85,2.85,0,0,0,26.75,32a5.85,5.85,0,0,0,2.47-.46l.28,1.16a7.21,7.21,0,0,1-3,.55,4.14,4.14,0,0,1-4.38-4.49c0-2.69,1.58-4.81,4.18-4.81,2.91,0,3.68,2.56,3.68,4.2a6.2,6.2,0,0,1-.05.76Zm4.75-1.16a2.32,2.32,0,0,0-2.25-2.64,2.69,2.69,0,0,0-2.49,2.64Z"/>
      </g>
      <path class="e" d="M16.7,35a9.2,9.2,0,1,1-.25-13.16"/>
      <ellipse class="a" cx="10.07" cy="28.51" rx="3.17" ry="3.44"/>
    </g>
  </g>
</svg>
