<svg xmlns="http://www.w3.org/2000/svg" viewBox="0 0 21.13 21.13">
  <defs>
    <style>
      .a {
        fill: #fff;
      }
    </style>
  </defs>
  <g>
    <path class="a" d="M12,10a.35.35,0,0,0,.31.19.29.29,0,0,0,.16,0A30.41,30.41,0,0,1,15.6,8.79a.36.36,0,0,0-.21-.68,28.77,28.77,0,0,0-3.23,1.44A.35.35,0,0,0,12,10Z"/>
    <path class="a" d="M12.32,6a.42.42,0,0,0,.16,0A29.8,29.8,0,0,1,15.6,4.56a.36.36,0,0,0,.23-.44.35.35,0,0,0-.44-.23,31.35,31.35,0,0,0-3.23,1.43.36.36,0,0,0,.16.67Z"/>
    <path class="a" d="M20.77,5.28a.35.35,0,0,0-.35.35V19.37a1,1,0,0,1-1.05,1.05H10.91v-.81a10.46,10.46,0,0,1,3.17-.6,17.91,17.91,0,0,1,5.17.69.36.36,0,0,0,.47-.33V3.87a.36.36,0,0,0-.28-.34l-.75-.15a.36.36,0,0,0-.41.28.35.35,0,0,0,.29.41l.44.09V18.9a19.77,19.77,0,0,0-4.93-.59,11,11,0,0,0-3.5.67,8.39,8.39,0,0,0-3.19-.67,24,24,0,0,0-5.28.6V4.15a22.72,22.72,0,0,1,5.28-.63,7.63,7.63,0,0,1,2.82.58V18a.35.35,0,0,0,.18.3.34.34,0,0,0,.35,0,40.62,40.62,0,0,1,6.62-3.14.34.34,0,0,0,.24-.33V.35a.35.35,0,0,0-.15-.29.36.36,0,0,0-.32,0,37.54,37.54,0,0,0-5.7,2.85.36.36,0,1,0,.38.6A36.38,36.38,0,0,1,16.9.87V14.54a38.62,38.62,0,0,0-6,2.81V3.87a.34.34,0,0,0-.19-.31,8.14,8.14,0,0,0-3.33-.74,23.69,23.69,0,0,0-5.73.71.36.36,0,0,0-.25.34v15.5a.35.35,0,0,0,.14.28.38.38,0,0,0,.21.07l.1,0A23,23,0,0,1,7.39,19a7.63,7.63,0,0,1,2.82.58v.83H1.76A1.06,1.06,0,0,1,.7,19.37V5.63a.35.35,0,0,0-.35-.35A.35.35,0,0,0,0,5.63V19.37a1.76,1.76,0,0,0,1.76,1.76H19.37a1.76,1.76,0,0,0,1.76-1.76V5.63A.36.36,0,0,0,20.77,5.28Z"/>
    <path class="a" d="M12,7.91a.35.35,0,0,0,.31.19.29.29,0,0,0,.16,0A32.16,32.16,0,0,1,15.6,6.67a.35.35,0,0,0,.23-.44A.36.36,0,0,0,15.39,6a31.35,31.35,0,0,0-3.23,1.43A.36.36,0,0,0,12,7.91Z"/>
    <path class="a" d="M12,12.13a.35.35,0,0,0,.31.19.29.29,0,0,0,.16,0A30.41,30.41,0,0,1,15.6,10.9a.36.36,0,0,0,.23-.44.35.35,0,0,0-.44-.23,29.25,29.25,0,0,0-3.23,1.43A.35.35,0,0,0,12,12.13Z"/>
    <path class="a" d="M8.53,6.53a11.15,11.15,0,0,0-4.75.17.35.35,0,0,0-.25.43.36.36,0,0,0,.34.26H4a10.8,10.8,0,0,1,4.41-.16A.35.35,0,0,0,8.79,7,.36.36,0,0,0,8.53,6.53Z"/>
    <path class="a" d="M8.53,8.65a11.4,11.4,0,0,0-4.75.16.36.36,0,0,0-.25.44.37.37,0,0,0,.34.26l.09,0a10.8,10.8,0,0,1,4.41-.16.35.35,0,0,0,.16-.68Z"/>
    <path class="a" d="M12,14.24a.35.35,0,0,0,.31.2.42.42,0,0,0,.16,0A29.8,29.8,0,0,1,15.6,13a.36.36,0,0,0,.23-.44.35.35,0,0,0-.44-.23,31.35,31.35,0,0,0-3.23,1.43A.35.35,0,0,0,12,14.24Z"/>
    <path class="a" d="M8.53,10.76a11.15,11.15,0,0,0-4.75.17.35.35,0,0,0-.25.43.36.36,0,0,0,.34.26H4a10.53,10.53,0,0,1,4.41-.17.35.35,0,0,0,.16-.68Z"/>
    <path class="a" d="M8.53,15a11.15,11.15,0,0,0-4.75.17.35.35,0,0,0-.25.43.36.36,0,0,0,.34.26H4a10.8,10.8,0,0,1,4.41-.16.35.35,0,0,0,.42-.26A.36.36,0,0,0,8.53,15Z"/>
    <path class="a" d="M8.53,12.87A11.15,11.15,0,0,0,3.78,13a.35.35,0,0,0-.25.43.36.36,0,0,0,.34.26H4a10.61,10.61,0,0,1,4.41-.16.35.35,0,0,0,.42-.27A.35.35,0,0,0,8.53,12.87Z"/>
  </g>
</svg>
