<svg version="1.1" id="followup-svg-logo" xmlns="http://www.w3.org/2000/svg" x="0px" y="0px"
	viewBox="0 0 500 500" style="enable-background:new 0 0 500 500;" xml:space="preserve">
	<style type="text/css">
		.followup-dark-svg-0{fill:#333333;}
		.st1{fill:url(#u2_1_);}
	</style>
	<g id="p">
		<path class="followup-dark-svg-0" d="M400.87,194.2c-6.31-10.39-15.3-18.4-26.97-24.05c-11.68-5.65-25.44-8.47-41.29-8.47h-21.29
			c0,0,0,72.25,0,97.65c0,19-5,32-9.17,40.93h30.46c15.85,0,29.61-2.78,41.29-8.34c11.67-5.56,20.66-13.57,26.97-24.05
			c6.3-10.48,9.46-22.73,9.46-36.76C410.33,216.89,407.17,204.59,400.87,194.2z M340.58,257.76
			C340.58,257.76,340.58,257.76,340.58,257.76c-0.01,0-0.01,0-0.01,0l0-0.01c-0.21-0.25-4.99-5.47-10.74-13.8
			c-8.78-12.72-8.78-17.92-7.84-23.42c2.21-12.96,14.82-13.74,19.93-12.29c6.94,1.98,9.63,7.69,9.95,8.43
			c0.65-0.48,5.86-4.04,12.85-2.24c5.14,1.33,14.92,7.45,10.98,20.67c-0.91,3.06-3.51,10-18.6,16.24"/>
		<path class="followup-dark-svg-0" d="M278.86,335.19c-8.07,8.03-17.37,14.51-27.9,19.48h47v-46.44C293.03,318.44,286.67,327.43,278.86,335.19z"/>
	</g>
	<linearGradient id="u2_1_" gradientUnits="userSpaceOnUse" x1="219.9422" y1="322.9323" x2="278.4163" y2="98.4864">
		<stop  offset="0" style="stop-color:#3670CE"/>
		<stop  offset="1" style="stop-color:#20E4BF"/>
	</linearGradient>
	<path id="u2" class="st1" d="M314.99,113.38l-11.84-5.16v139.07c0,34.7-9.4,61.41-28.22,80.11c-18.81,18.71-45.12,28.05-78.92,28.05
		c-19.47,0-36.45-3.1-50.95-9.32c6.95,1.94,14.27,2.97,21.84,2.97c44.88,0,81.02-36.37,81.02-81.25c0-1.77,0.46-3.52,0.52-5.27
		c0.19-5.35,0.35-11.08,0.35-17.32l0.29-137.04l-12.46,5.16c0,0,15.17-27.63,20.22-36.83C261.58,67.91,275.81,42,275.81,42
		l18.64,33.96L314.99,113.38z"/>
	<path id="u1" class="followup-dark-svg-0" d="M248.28,267.85c0,44.88-36.51,81.25-81.39,81.25c-7.57,0-14.89-1.04-21.84-2.97
		c-10.67-4.55-20-10.8-27.97-18.73c-18.81-18.71-25.04-45.41-25.04-80.11l0,0c0-32.52,10.22-77.56,10.22-77.56l15.18,0.01l26.18-0.18
		c0,0-3.51,56.76-4.01,75.7c-1.12,42.35,21.58,63.55,56.74,63.55c17.11,0,30.21-5.1,39.21-15.39c11.76-13.45,12.76-30.82,12.76-30.82
		S248.28,266.07,248.28,267.85z"/>
	<g>
		<path class="followup-dark-svg-0" d="M98.78,394.25v13.02h16.25v2H98.78v13.46h-2.22v-30.49h20.39v2H98.78z"/>
		<path class="followup-dark-svg-0" d="M137.2,420.94c-2.41-1.35-4.31-3.2-5.68-5.55c-1.38-2.35-2.07-4.98-2.07-7.88c0-2.9,0.69-5.53,2.07-7.88
			c1.38-2.35,3.27-4.2,5.68-5.55c2.41-1.35,5.11-2.03,8.1-2.03c2.99,0,5.69,0.67,8.1,2c2.41,1.34,4.3,3.18,5.68,5.53
			c1.38,2.35,2.07,5,2.07,7.93c0,2.93-0.69,5.58-2.07,7.93c-1.38,2.35-3.27,4.2-5.68,5.53c-2.41,1.34-5.11,2-8.1,2
			C142.32,422.96,139.61,422.29,137.2,420.94z M152.23,419.17c2.06-1.16,3.69-2.77,4.88-4.81c1.19-2.05,1.79-4.33,1.79-6.86
			s-0.6-4.81-1.79-6.86c-1.19-2.05-2.82-3.65-4.88-4.81c-2.06-1.16-4.37-1.74-6.93-1.74c-2.56,0-4.87,0.58-6.95,1.74
			c-2.08,1.16-3.71,2.77-4.9,4.81c-1.19,2.05-1.79,4.33-1.79,6.86s0.6,4.81,1.79,6.86c1.19,2.05,2.82,3.65,4.9,4.81
			c2.08,1.16,4.39,1.74,6.95,1.74C147.86,420.91,150.17,420.33,152.23,419.17z"/>
		<path class="followup-dark-svg-0" d="M177.58,392.25h2.22v28.49h17.55v2h-19.78V392.25z"/>
		<path class="followup-dark-svg-0" d="M211.78,392.25H214v28.49h17.55v2h-19.78V392.25z"/>
		<path class="followup-dark-svg-0" d="M250.2,420.94c-2.41-1.35-4.31-3.2-5.68-5.55c-1.38-2.35-2.07-4.98-2.07-7.88c0-2.9,0.69-5.53,2.07-7.88
			c1.38-2.35,3.27-4.2,5.68-5.55c2.41-1.35,5.11-2.03,8.1-2.03c2.99,0,5.69,0.67,8.1,2c2.41,1.34,4.3,3.18,5.68,5.53
			c1.38,2.35,2.07,5,2.07,7.93c0,2.93-0.69,5.58-2.07,7.93c-1.38,2.35-3.27,4.2-5.68,5.53c-2.41,1.34-5.11,2-8.1,2
			C255.31,422.96,252.61,422.29,250.2,420.94z M265.23,419.17c2.06-1.16,3.69-2.77,4.88-4.81c1.19-2.05,1.79-4.33,1.79-6.86
			s-0.6-4.81-1.79-6.86c-1.19-2.05-2.82-3.65-4.88-4.81c-2.06-1.16-4.37-1.74-6.93-1.74c-2.55,0-4.87,0.58-6.95,1.74
			c-2.08,1.16-3.71,2.77-4.9,4.81c-1.19,2.05-1.79,4.33-1.79,6.86s0.6,4.81,1.79,6.86c1.19,2.05,2.82,3.65,4.9,4.81
			c2.08,1.16,4.39,1.74,6.95,1.74C260.86,420.91,263.16,420.33,265.23,419.17z"/>
		<path class="followup-dark-svg-0" d="M330.43,392.25l-10.32,30.49h-2.35l-9.45-27.36l-9.5,27.36h-2.35l-10.37-30.49h2.35l9.28,27.44l9.54-27.44
			h2.13l9.5,27.49l9.37-27.49H330.43z"/>
		<path class="followup-dark-svg-0" d="M349.14,419.61c-2.13-2.24-3.2-5.5-3.2-9.8v-17.55h2.22v17.47c0,3.75,0.86,6.55,2.57,8.41
			c1.71,1.86,4.2,2.79,7.45,2.79c3.22,0,5.69-0.93,7.41-2.79c1.71-1.86,2.57-4.66,2.57-8.41v-17.47h2.22v17.55
			c0,4.3-1.08,7.57-3.22,9.8c-2.15,2.24-5.16,3.35-9.02,3.35C354.27,422.96,351.28,421.84,349.14,419.61z"/>
		<path class="followup-dark-svg-0" d="M409.41,394.97c2.18,1.82,3.27,4.33,3.27,7.56c0,3.2-1.09,5.7-3.27,7.51s-5.18,2.72-9.02,2.72h-8.71v9.98
			h-2.22v-30.49h10.93C404.22,392.25,407.23,393.16,409.41,394.97z M407.84,408.63c1.71-1.42,2.57-3.46,2.57-6.1
			c0-2.64-0.86-4.68-2.57-6.12c-1.71-1.44-4.2-2.16-7.45-2.16h-8.71v16.51h8.71C403.64,410.76,406.13,410.05,407.84,408.63z"/>
	</g>
</svg>
