<svg xmlns="http://www.w3.org/2000/svg" xmlns:xlink="http://www.w3.org/1999/xlink" viewBox="0 0 45.46 37.67">
  <defs>
    <style>
      .a {
        fill: #fff;
      }

      .b {
        fill: url(#a);
      }
    </style>
    <linearGradient id="a" data-name="Gradient bez nazwy 20" x1="3.36" y1="23.5" x2="12.38" y2="23.5" gradientUnits="userSpaceOnUse">
      <stop offset="0" stop-color="#6523b8"/>
      <stop offset="0.47" stop-color="#8629cc"/>
      <stop offset="1" stop-color="#a72fe0"/>
    </linearGradient>
  </defs>
  <g>
    <g>
      <path class="a" d="M27.16,37v.57H24.77V34.53H27.1v.57H25.48v.67h1.43v.56H25.48V37Z"/>
      <path class="a" d="M28,37.57a1.88,1.88,0,0,1-.55-.26l.25-.54a1.38,1.38,0,0,0,.47.23,1.7,1.7,0,0,0,.54.09.84.84,0,0,0,.45-.09.27.27,0,0,0,.15-.24.23.23,0,0,0-.09-.18.57.57,0,0,0-.22-.12l-.36-.09c-.24-.06-.43-.12-.58-.17a.94.94,0,0,1-.38-.27.71.71,0,0,1-.16-.49.83.83,0,0,1,.14-.49,1,1,0,0,1,.44-.35,1.87,1.87,0,0,1,.72-.12,2.22,2.22,0,0,1,.57.07,1.5,1.5,0,0,1,.5.2l-.22.54a1.75,1.75,0,0,0-.86-.24.73.73,0,0,0-.44.1.27.27,0,0,0-.15.25.26.26,0,0,0,.17.24,2.81,2.81,0,0,0,.5.15,3.46,3.46,0,0,1,.58.17.93.93,0,0,1,.39.26.74.74,0,0,1,.16.49.81.81,0,0,1-.15.48,1,1,0,0,1-.44.35,1.93,1.93,0,0,1-.72.13A2.83,2.83,0,0,1,28,37.57Z"/>
      <path class="a" d="M32.37,35.8a.94.94,0,0,1,.38.33,1,1,0,0,1,0,1,1,1,0,0,1-.42.36,1.47,1.47,0,0,1-.6.13,1.32,1.32,0,0,1-1-.4,1.63,1.63,0,0,1-.37-1.13,1.93,1.93,0,0,1,.2-.9,1.34,1.34,0,0,1,.56-.57,1.66,1.66,0,0,1,.82-.19,1.83,1.83,0,0,1,.47.05,1.38,1.38,0,0,1,.39.16l-.27.52a1,1,0,0,0-.58-.15.82.82,0,0,0-.62.23.94.94,0,0,0-.24.66,1,1,0,0,1,.76-.27A1.19,1.19,0,0,1,32.37,35.8ZM32.06,37a.43.43,0,0,0,.14-.34.42.42,0,0,0-.14-.33.55.55,0,0,0-.38-.13.56.56,0,0,0-.39.13.43.43,0,0,0-.15.33.4.4,0,0,0,.15.33.54.54,0,0,0,.39.13A.58.58,0,0,0,32.06,37Z"/>
      <path class="a" d="M35.37,36.34h-.76v.75H34v-.75h-.77V35.8H34v-.75h.57v.75h.76Z"/>
    </g>
    <path class="a" d="M39.75,0h-.06a6.67,6.67,0,0,0-3.85,2.1A7.07,7.07,0,0,0,32.16,0h-.33A1.61,1.61,0,0,0,31,.24c-1.11.63-1.35,2.61-.78,5.1-2.44.75-4,2-4,3.22s1.6,2.49,4,3.23c-.56,2.5-.31,4.48.79,5.12a1.86,1.86,0,0,0,.89.21A6.53,6.53,0,0,0,35.86,15a6.56,6.56,0,0,0,3.92,2.09,1.72,1.72,0,0,0,.88-.22c1.1-.64,1.35-2.61.78-5.1,2.43-.75,4-2,4-3.23s-1.59-2.48-4-3.23C42,2.84,41.73.86,40.63.22A1.77,1.77,0,0,0,39.9,0Zm0,.88a.91.91,0,0,1,.45.1c.53.31.76,1.47.58,3a10.3,10.3,0,0,1-.2,1.15,19.82,19.82,0,0,0-2.49-.43,20.65,20.65,0,0,0-1.63-2A5.79,5.79,0,0,1,39.75.87m-7.83,0a5.79,5.79,0,0,1,3.29,1.83A19.22,19.22,0,0,0,33.6,4.67a19.67,19.67,0,0,0-2.5.43C31,4.71,31,4.33,30.9,4c-.19-1.5,0-2.66.57-3a.88.88,0,0,1,.45-.11M40.36,6c-.15.51-.33,1-.53,1.55-.16-.32-.33-.63-.52-.94s-.37-.62-.56-.92A15.82,15.82,0,0,1,40.36,6Zm-1.8,4.17c-.3.53-.62,1-.94,1.5-.59.05-1.18.08-1.77.08s-1.19,0-1.77-.07c-.32-.47-.64-1-.95-1.49s-.57-1-.81-1.56c.24-.53.52-1,.81-1.57s.62-1,.94-1.5c.59,0,1.18-.07,1.78-.07s1.18,0,1.76.07c.32.47.64,1,1,1.49s.57,1,.81,1.56A16.5,16.5,0,0,1,38.56,10.12Zm1.27-.51c.21.53.39,1.06.54,1.56a15.48,15.48,0,0,1-1.62.32q.3-.45.57-.93C39.5,10.25,39.67,9.93,39.83,9.61Zm-4,4.19c-.36-.38-.73-.8-1.09-1.26q.54,0,1.08,0c.37,0,.73,0,1.09,0A15.39,15.39,0,0,1,35.85,13.8Zm-2.91-2.31c-.56-.08-1.1-.19-1.61-.31.15-.51.33-1,.53-1.55.16.31.33.63.51.94Zm2.89-8.16a15.45,15.45,0,0,1,1.09,1.26c-.35,0-.71,0-1.07,0s-.74,0-1.09,0A15.33,15.33,0,0,1,35.83,3.33Zm-2.9,2.31c-.19.3-.38.61-.56.93s-.35.63-.51.94q-.32-.79-.54-1.56C31.83,5.83,32.37,5.72,32.93,5.64Zm-3.54,4.91C28,10,27.1,9.18,27.1,8.56s.9-1.39,2.29-2c.33-.14.7-.27,1.08-.39a21.22,21.22,0,0,0,.88,2.38A18.73,18.73,0,0,0,30.48,11C30.1,10.83,29.73,10.69,29.39,10.55Zm2.1,5.6c-.53-.31-.76-1.47-.58-3a10.3,10.3,0,0,1,.2-1.15,19.82,19.82,0,0,0,2.49.43,20.65,20.65,0,0,0,1.63,2,5.82,5.82,0,0,1-3.29,1.83A.88.88,0,0,1,31.49,16.15Zm9.3-3c.19,1.5,0,2.66-.57,3a.88.88,0,0,1-.45.11,5.79,5.79,0,0,1-3.29-1.83,19.42,19.42,0,0,0,1.62-2A18.16,18.16,0,0,0,40.59,12,10.55,10.55,0,0,1,40.79,13.16Zm1.51-2.61q-.51.21-1.08.39a19.55,19.55,0,0,0-.89-2.38,18.73,18.73,0,0,0,.87-2.38c.39.12.76.26,1.11.4,1.38.59,2.28,1.37,2.28,2S43.69,10,42.3,10.55Z"/>
    <circle class="a" cx="35.84" cy="8.56" r="1.79"/>
    <path class="a" d="M29.72,7.36A3.55,3.55,0,0,0,28,8.6a4.33,4.33,0,0,0,1.77,1.17l.22.08c.14-.42.31-.85.49-1.28-.18-.41-.33-.81-.47-1.22h-.24Z"/>
    <path class="a" d="M34,14.34c-.29-.34-.59-.7-.87-1.08q-.7-.09-1.35-.21a.91.91,0,0,0,0,.23A3.42,3.42,0,0,0,32,15.43,4.34,4.34,0,0,0,34,14.34Z"/>
    <g>
      <g>
        <polygon class="b" points="3.37 19.59 5.98 19.59 7.87 22.87 9.76 19.59 12.38 19.59 7.87 27.4 3.37 19.59"/>
        <path class="a" d="M12.16,19.72,7.87,27.15,3.58,19.72H5.91l1.74,3,.22.38.22-.38,1.74-3h2.33m.43-.25H9.69L7.87,22.62,6.05,19.47H3.15l4.72,8.18,4.72-8.18Z"/>
      </g>
      <polygon class="a" points="12.59 19.47 7.87 27.65 3.15 19.47 0 19.47 7.87 33.1 15.74 19.47 12.59 19.47"/>
    </g>
    <g>
      <path class="a" d="M11.69,3.68a1.26,1.26,0,0,1,.37,1V6.35h-.8V6a1,1,0,0,1-.9.41,1.32,1.32,0,0,1-.59-.12A.79.79,0,0,1,9.39,6a.83.83,0,0,1-.14-.46.79.79,0,0,1,.31-.65,1.58,1.58,0,0,1,1-.24h.68A.56.56,0,0,0,11,4.18.74.74,0,0,0,10.52,4a1.44,1.44,0,0,0-.46.08,1.2,1.2,0,0,0-.39.2l-.31-.6a1.93,1.93,0,0,1,.58-.26,2.37,2.37,0,0,1,.7-.1A1.54,1.54,0,0,1,11.69,3.68Zm-.73,2a.53.53,0,0,0,.24-.3v-.3h-.59c-.35,0-.52.12-.52.35a.3.3,0,0,0,.13.26.58.58,0,0,0,.35.09A.71.71,0,0,0,11,5.71Z"/>
      <path class="a" d="M14.7,6.35l-.64-.91-.67.91h-.93l1.13-1.49L12.49,3.4h1l.63.86.64-.86h.91l-1.1,1.44,1.14,1.51Z"/>
      <path class="a" d="M16.13,2.85A.44.44,0,0,1,16,2.51a.42.42,0,0,1,.14-.34A.56.56,0,0,1,16.52,2a.6.6,0,0,1,.38.13.43.43,0,0,1,.15.33.49.49,0,0,1-.15.36.56.56,0,0,1-.38.14A.56.56,0,0,1,16.13,2.85Zm0,.55h.85V6.35h-.85Z"/>
      <path class="a" d="M18.31,6.2a1.44,1.44,0,0,1-.58-.54,1.53,1.53,0,0,1-.21-.79,1.47,1.47,0,0,1,.21-.78,1.44,1.44,0,0,1,.58-.54,1.73,1.73,0,0,1,.83-.2,1.8,1.8,0,0,1,.84.2,1.47,1.47,0,0,1,.78,1.32,1.53,1.53,0,0,1-.21.79A1.48,1.48,0,0,1,20,6.2a1.79,1.79,0,0,1-.84.19A1.72,1.72,0,0,1,18.31,6.2Zm1.37-.73a.84.84,0,0,0,.21-.6.8.8,0,0,0-.21-.59.75.75,0,0,0-1.08,0,.8.8,0,0,0-.21.59.84.84,0,0,0,.21.6.77.77,0,0,0,1.08,0Z"/>
      <path class="a" d="M21.6,6.3A2,2,0,0,1,21,6.07l.29-.61a1.78,1.78,0,0,0,.48.2,1.73,1.73,0,0,0,.54.08c.37,0,.55-.09.55-.27s0-.14-.15-.18a3.37,3.37,0,0,0-.46-.09,4.13,4.13,0,0,1-.59-.13.83.83,0,0,1-.41-.25.69.69,0,0,1-.17-.51.79.79,0,0,1,.16-.5,1,1,0,0,1,.47-.34,2,2,0,0,1,.73-.12,3.18,3.18,0,0,1,.62.07,1.76,1.76,0,0,1,.51.19l-.28.61A1.66,1.66,0,0,0,22.48,4a.87.87,0,0,0-.41.08.22.22,0,0,0-.14.19.2.2,0,0,0,.15.2,3.27,3.27,0,0,0,.47.1,4.13,4.13,0,0,1,.59.13.8.8,0,0,1,.4.25.68.68,0,0,1,.17.5.78.78,0,0,1-.16.49,1.08,1.08,0,0,1-.48.33,2.11,2.11,0,0,1-.75.12A3,3,0,0,1,21.6,6.3Z"/>
    </g>
    <path class="a" d="M32,18a2.62,2.62,0,0,1-1.32-.34c-1.31-.76-1.79-2.66-1.34-5.28-2.5-.91-3.91-2.27-3.91-3.8a2.67,2.67,0,0,1,.32-1.21H9.5V18.62h7.71L9.5,32V33.1H35.25V16.64A5.94,5.94,0,0,1,32,18Zm-8.41,9.43a3.28,3.28,0,0,1-3.6,3.64,3.74,3.74,0,0,1-3.62-2.21l2-1.19c.38.68.73,1.25,1.56,1.25s1.29-.31,1.29-1.52V19.17h2.41Zm5.71,3.64a4.63,4.63,0,0,1-4.39-2.46l2-1.14a2.63,2.63,0,0,0,2.38,1.46c1,0,1.64-.5,1.64-1.19s-.65-1.12-1.76-1.6l-.6-.26c-1.74-.74-2.9-1.67-2.9-3.64A3.23,3.23,0,0,1,29.12,19,3.57,3.57,0,0,1,32.55,21l-1.88,1.21a1.64,1.64,0,0,0-1.55-1,1,1,0,0,0-1.16,1c0,.73.45,1,1.48,1.47l.61.26c2.05.87,3.21,1.77,3.21,3.79S31.55,31.05,29.25,31.05Z"/>
  </g>
</svg>
