<svg xmlns="http://www.w3.org/2000/svg" viewBox="0 0 234 88.5">
  <defs>
    <style>
      .a {
        fill: #fff;
      }
    </style>
  </defs>
  <g>
    <path class="a" d="M24.4,159.45a6.57,6.57,0,0,1-2,4.8,6.42,6.42,0,0,1-4.9,2,6.34,6.34,0,0,1-4.7-2,7.14,7.14,0,0,1,0-9.7,6.51,6.51,0,0,1,4.7-2,7,7,0,0,1,4.9,2,6.56,6.56,0,0,1,2,4.9" transform="translate(-10.9 -77.75)"/>
    <path class="a" d="M109.5,164.85H97.1l-45-69.4A25.56,25.56,0,0,1,49.4,90H49a93.35,93.35,0,0,1,.5,12v62.9H39.3V77.75H52.6l43.6,68.4c1.7,2.7,2.9,4.7,3.5,5.8h.2a93.23,93.23,0,0,1-.6-12.8V77.85h10.1l.1,87Z" transform="translate(-10.9 -77.75)"/>
    <path class="a" d="M174.9,164.85H128.7V77.75h44.2V87h-34v29h31.5v9.2H138.9v30.4h36v9.3Z" transform="translate(-10.9 -77.75)"/>
    <path class="a" d="M244.9,87.05H219.8V165H209.6V87.05H184.5v-9.2h60.4v9.2Z" transform="translate(-10.9 -77.75)"/>
  </g>
</svg>
