<svg xmlns="http://www.w3.org/2000/svg" viewBox="0 0 21.82 21.82">
  <defs>
    <style>
      .a {
        stroke: #fff;
        stroke-miterlimit: 10;
        fill: url(#a);
      }

      .b {
        fill: #fff;
      }
    </style>
    <linearGradient id="a" x1="0.5" y1="10.91" x2="21.32" y2="10.91" gradientUnits="userSpaceOnUse">
      <stop offset="0" stop-color="#6523b8"/>
      <stop offset="0.47" stop-color="#8629cc"/>
      <stop offset="1" stop-color="#a72fe0"/>
    </linearGradient>
  </defs>
  <g>
    <rect class="a" x="0.5" y="0.5" width="20.82" height="20.82"/>
    <g>
      <path class="b" d="M5.55,6.21A14.29,14.29,0,0,1,7.92,6a3.91,3.91,0,0,1,2.69.8,2.55,2.55,0,0,1,.84,2,2.84,2.84,0,0,1-.74,2.05,4,4,0,0,1-2.93,1,3.87,3.87,0,0,1-1-.09v3.84H5.55Zm1.23,4.62a3.81,3.81,0,0,0,1,.1c1.49,0,2.4-.72,2.4-2S9.32,7,8,7a5.09,5.09,0,0,0-1.17.1Z"/>
      <path class="b" d="M12.59,14.4a3.19,3.19,0,0,0,1.65.5c.91,0,1.33-.45,1.33-1s-.35-.93-1.28-1.27c-1.23-.44-1.82-1.12-1.82-1.95a2.13,2.13,0,0,1,2.38-2,3.41,3.41,0,0,1,1.69.42l-.31.91a2.69,2.69,0,0,0-1.41-.4c-.74,0-1.15.43-1.15.94s.41.83,1.31,1.17c1.19.45,1.8,1.05,1.8,2.07,0,1.21-.94,2.07-2.57,2.07a4,4,0,0,1-1.94-.47Z"/>
    </g>
  </g>
</svg>
