<svg xmlns="http://www.w3.org/2000/svg" viewBox="0 0 21.82 21.82">
  <defs>
    <style>
      .a {
        stroke: #fff;
        stroke-miterlimit: 10;
        fill: url(#a);
      }

      .b {
        fill: #fff;
      }
    </style>
    <linearGradient id="a" x1="0.5" y1="10.91" x2="21.32" y2="10.91" gradientUnits="userSpaceOnUse">
      <stop offset="0" stop-color="#6523b8"/>
      <stop offset="0.47" stop-color="#8629cc"/>
      <stop offset="1" stop-color="#a72fe0"/>
    </linearGradient>
  </defs>
  <g>
    <rect class="a" x="0.5" y="0.5" width="20.82" height="20.82"/>
    <g>
      <path class="b" d="M6,6.21A14.2,14.2,0,0,1,8.37,6a3.91,3.91,0,0,1,2.69.8,2.58,2.58,0,0,1,.84,2,2.84,2.84,0,0,1-.74,2.05,4,4,0,0,1-2.93,1,3.87,3.87,0,0,1-1-.09v3.84H6Zm1.23,4.62a3.77,3.77,0,0,0,1,.1c1.49,0,2.4-.72,2.4-2S9.76,7,8.4,7a5.09,5.09,0,0,0-1.17.1Z"/>
      <path class="b" d="M13.29,11c0-.81,0-1.51-.06-2.15h1.1l0,1.35h.06a2.05,2.05,0,0,1,1.9-1.5,1.28,1.28,0,0,1,.36,0V9.87a1.85,1.85,0,0,0-.43,0,1.76,1.76,0,0,0-1.68,1.6,4.83,4.83,0,0,0-.05.59v3.66H13.29Z"/>
    </g>
  </g>
</svg>
