<svg version="1.1" xmlns="http://www.w3.org/2000/svg" x="0px" y="0px"
	viewBox="0 0 663.9 595.3" style="enable-background:new 0 0 663.9 595.3;" xml:space="preserve">
	<style type="text/css">
		.st0{fill:#FFFFFF;}
	</style>
	<g>
		<path class="st0" d="M660,296.5c0-43.5-54.4-84.6-137.9-110.2c19.3-85,10.7-152.7-27-174.4c-8.7-5.1-18.9-7.5-30-7.5v29.8
			c6.2,0,11.1,1.2,15.2,3.5c18.2,10.4,26.1,50.1,19.9,101.2c-1.5,12.6-3.9,25.8-6.8,39.3c-26.2-6.4-54.8-11.4-84.9-14.6
			c-18.1-24.7-36.8-47.2-55.6-66.9c43.6-40.5,84.5-62.7,112.3-62.7V4.4l0,0c-36.8,0-84.9,26.2-133.6,71.7
			C283.1,30.8,234.9,4.9,198.2,4.9v29.8c27.7,0,68.7,22.1,112.3,62.3c-18.7,19.7-37.4,42-55.2,66.7c-30.2,3.2-58.8,8.2-85,14.7
			c-3.1-13.4-5.3-26.3-7-38.8c-6.3-51.1,1.5-90.8,19.5-101.4c4-2.4,9.2-3.5,15.4-3.5V5l0,0c-11.2,0-21.4,2.4-30.2,7.5
			c-37.6,21.7-46,89.2-26.6,174C58.2,212.1,4,253.2,4,296.5c0,43.5,54.4,84.6,137.9,110.2c-19.3,85-10.7,152.7,27,174.4
			c8.7,5.1,18.9,7.5,30.1,7.5c36.8,0,84.9-26.2,133.6-71.7c48.7,45.2,96.8,71.1,133.6,71.1c11.2,0,21.4-2.4,30.2-7.5
			c37.6-21.7,46-89.2,26.6-174C605.8,381,660,339.8,660,296.5z M485.9,207.3c-4.9,17.2-11.1,35-18.1,52.8
			c-5.5-10.7-11.2-21.4-17.5-32.1c-6.2-10.7-12.7-21.1-19.3-31.3C450.1,199.6,468.4,203.1,485.9,207.3z M424.7,349.7
			c-10.4,18.1-21.1,35.2-32.2,51.1c-19.9,1.7-40.1,2.7-60.4,2.7c-20.2,0-40.4-0.9-60.2-2.5c-11.1-15.9-21.9-32.9-32.4-50.8
			c-10.2-17.5-19.4-35.3-27.8-53.2c8.3-17.9,17.7-35.8,27.7-53.4c10.4-18.1,21.1-35.2,32.2-51.1c19.9-1.7,40.1-2.7,60.4-2.7
			c20.2,0,40.4,0.9,60.2,2.5c11.1,15.9,21.9,32.9,32.4,50.8c10.2,17.5,19.4,35.3,27.8,53.2C443.9,314.3,434.7,332.2,424.7,349.7z
			M467.9,332.4c7.2,17.9,13.4,35.8,18.5,53.2c-17.5,4.3-36,7.9-55.1,10.7c6.6-10.3,13.1-20.9,19.3-31.7
			C456.6,353.9,462.4,343,467.9,332.4z M332.3,475c-12.4-12.8-24.9-27.1-37.2-42.8c12,0.5,24.3,0.9,36.8,0.9c12.6,0,25-0.3,37.2-0.9
			C357,447.9,344.6,462.2,332.3,475z M232.8,396.3c-19-2.8-37.3-6.3-54.8-10.6c4.9-17.2,11.1-35,18.1-52.8
			c5.5,10.7,11.2,21.4,17.5,32.1S226.2,386.1,232.8,396.3z M331.6,118c12.4,12.8,24.9,27.1,37.2,42.8c-12-0.5-24.3-0.9-36.8-0.9
			c-12.6,0-25,0.3-37.2,0.9C306.9,145.2,319.3,130.8,331.6,118z M232.7,196.8c-6.6,10.3-13.1,20.9-19.3,31.7
			c-6.2,10.7-11.9,21.4-17.4,32.1c-7.2-17.9-13.4-35.8-18.5-53.2C195.1,203.2,213.5,199.6,232.7,196.8z M111.6,364.2
			c-47.3-20.2-78-46.7-78-67.7c0-21,30.6-47.6,78-67.7c11.5-4.9,24.1-9.4,37-13.5c7.6,26.2,17.7,53.5,30.1,81.4
			c-12.3,27.8-22.2,55-29.7,81C135.8,373.7,123.3,369.1,111.6,364.2z M183.6,555.3c-18.2-10.4-26.1-50.1-19.9-101.2
			c1.5-12.6,3.9-25.8,6.8-39.3c26.2,6.4,54.8,11.4,84.9,14.6c18.1,24.7,36.8,47.2,55.6,66.9c-43.6,40.5-84.5,62.7-112.3,62.7
			C192.7,558.7,187.6,557.5,183.6,555.3z M500.7,453.4c6.3,51.1-1.5,90.8-19.5,101.4c-4,2.4-9.2,3.5-15.4,3.5
			c-27.7,0-68.7-22.1-112.3-62.3c18.7-19.7,37.4-42,55.2-66.7c30.2-3.2,58.8-8.2,85-14.7C496.9,428,499.3,440.9,500.7,453.4z
			M552.2,364.2c-11.5,4.9-24.1,9.4-37,13.5c-7.6-26.2-17.7-53.5-30.1-81.4c12.3-27.8,22.2-55,29.7-81c13.2,4.1,25.8,8.7,37.6,13.6
			c47.3,20.2,78,46.7,78,67.7C630.2,317.5,599.6,344.1,552.2,364.2z"/>
		<path class="st0" d="M198,4.9L198,4.9L198,4.9z"/>
		<circle class="st0" cx="331.9" cy="296.5" r="61.1"/>
		<path class="st0" d="M465,4.5L465,4.5L465,4.5z"/>
	</g>
</svg>
