<svg xmlns="http://www.w3.org/2000/svg" viewBox="0 0 25.22 26.89">
  <defs>
    <style>
      .a {
        fill: none;
        stroke: #fff;
        stroke-miterlimit: 10;
      }
    </style>
  </defs>
  <g>
    <path class="a" d="M4.19,25c0-1.62.13-1.43,0-3.05-.14-2.14-1.63-4.19-2.44-6.12a12.82,12.82,0,0,1-1.15-7A9.13,9.13,0,0,1,4.35,2.66c4.44-3.06,11-3,15,.95A6.67,6.67,0,0,1,21.22,7a27.59,27.59,0,0,0,.58,2.7,10.7,10.7,0,0,0,1.52,2.53c.37.55,1.69,2.07,1.33,2.77a1.36,1.36,0,0,1-.55.51,10.64,10.64,0,0,0-1.83,1.19C21.78,17.2,22,19,22,19.65a4.76,4.76,0,0,1-1.29,3.56c-1,1-3.36.58-4.68.54v3.14"/>
    <circle class="a" cx="10.63" cy="10.31" r="2.13"/>
    <path class="a" d="M16.67,11.44V9H15a4.58,4.58,0,0,0-.42-1l1.23-1.23L14.05,5.1,12.8,6.35A4.3,4.3,0,0,0,11.86,6V4.2H9.43V6a4.39,4.39,0,0,0-.95.38L7.24,5.1,5.52,6.82,6.73,8A4.78,4.78,0,0,0,6.3,9H4.62v2.43H6.26a4.49,4.49,0,0,0,.4,1L5.52,13.62l1.72,1.73,1.13-1.13a4.76,4.76,0,0,0,1.06.45v1.58h2.43V14.66a4.89,4.89,0,0,0,1.05-.45l1.14,1.14,1.72-1.73-1.16-1.16a4.31,4.31,0,0,0,.39-1Z"/>
  </g>
</svg>
