<svg xmlns="http://www.w3.org/2000/svg" viewBox="0 0 38.37 50.02">
  <defs>
    <style>
      .timeline-a {
        fill: #6f6f6e;
      }

      .timeline-b {
        fill: none;
        stroke: #6f6f6e;
        stroke-miterlimit: 10;
      }
    </style>
  </defs>
  <g>
    <g>
      <path class="timeline-a" d="M5.48,46.36a1.44,1.44,0,0,1,.35,1v1.83H5.25V47.46A1,1,0,0,0,5,46.77a.78.78,0,0,0-.61-.24.9.9,0,0,0-.7.28,1.1,1.1,0,0,0-.26.78v1.64H2.9V47.46a1,1,0,0,0-.21-.69.79.79,0,0,0-.61-.24.88.88,0,0,0-.7.28,1.1,1.1,0,0,0-.26.78v1.64H.55V46.05H1.1v.47a1.08,1.08,0,0,1,.45-.37A1.51,1.51,0,0,1,2.2,46a1.45,1.45,0,0,1,.66.15,1,1,0,0,1,.44.43,1.32,1.32,0,0,1,.5-.43A1.72,1.72,0,0,1,4.52,46,1.33,1.33,0,0,1,5.48,46.36Z" transform="translate(-0.55 -0.73)"/>
      <path class="timeline-a" d="M9.06,46.34a1.28,1.28,0,0,1,.35,1v1.92H8.86v-.42a.93.93,0,0,1-.41.34,1.73,1.73,0,0,1-.63.11A1.3,1.3,0,0,1,7,49a.82.82,0,0,1-.32-.67A.83.83,0,0,1,7,47.65a1.5,1.5,0,0,1,1-.25h.91v-.12a.74.74,0,0,0-.21-.57.94.94,0,0,0-.64-.2,1.49,1.49,0,0,0-.55.1,1.36,1.36,0,0,0-.46.25l-.24-.44a1.82,1.82,0,0,1,.59-.3,2.48,2.48,0,0,1,.73-.1A1.43,1.43,0,0,1,9.06,46.34Zm-.58,2.33a.85.85,0,0,0,.35-.42v-.44H7.94c-.48,0-.73.16-.73.49a.44.44,0,0,0,.19.38.84.84,0,0,0,.51.14A1.05,1.05,0,0,0,8.48,48.67Z" transform="translate(-0.55 -0.73)"/>
      <path class="timeline-a" d="M9.68,50.38a.71.71,0,0,1-.3-.15l.18-.44a.72.72,0,0,0,.47.15.45.45,0,0,0,.35-.14.62.62,0,0,0,.13-.42V46.05h.57v3.32a1.09,1.09,0,0,1-.26.77,1,1,0,0,1-.75.29A1.6,1.6,0,0,1,9.68,50.38Zm.83-5.05a.39.39,0,0,1-.11-.27.4.4,0,0,1,.11-.27.41.41,0,0,1,.28-.11.38.38,0,0,1,.28.11.33.33,0,0,1,.11.26.33.33,0,0,1-.11.27.34.34,0,0,1-.28.11A.4.4,0,0,1,10.51,45.33Z" transform="translate(-0.55 -0.73)"/>
      <path class="timeline-a" d="M16.49,48.7v.53h-3v-.41l1.71-1.65a2.06,2.06,0,0,0,.42-.52,1,1,0,0,0,.11-.44.62.62,0,0,0-.23-.51,1,1,0,0,0-.67-.19,1.3,1.3,0,0,0-1.07.46l-.41-.36a1.63,1.63,0,0,1,.65-.46,2.11,2.11,0,0,1,.89-.17,1.62,1.62,0,0,1,1.05.31,1.05,1.05,0,0,1,.39.86,1.39,1.39,0,0,1-.15.63,2.42,2.42,0,0,1-.54.69L14.33,48.7Z" transform="translate(-0.55 -0.73)"/>
      <path class="timeline-a" d="M17.79,49a1.73,1.73,0,0,1-.61-.74,3.14,3.14,0,0,1,0-2.31,1.73,1.73,0,0,1,.61-.74,1.59,1.59,0,0,1,.89-.25,1.56,1.56,0,0,1,.88.25,1.81,1.81,0,0,1,.61.74,3.14,3.14,0,0,1,0,2.31,1.81,1.81,0,0,1-.61.74,1.56,1.56,0,0,1-.88.25A1.59,1.59,0,0,1,17.79,49Zm1.69-.69a2,2,0,0,0,.31-1.2,1.93,1.93,0,0,0-.31-1.2.94.94,0,0,0-.8-.42,1,1,0,0,0-.82.42,2,2,0,0,0-.3,1.2,2,2,0,0,0,.3,1.2,1,1,0,0,0,.82.41A1,1,0,0,0,19.48,48.33Z" transform="translate(-0.55 -0.73)"/>
      <path class="timeline-a" d="M22.25,45v4.2h-.6V45.55h-.94V45Z" transform="translate(-0.55 -0.73)"/>
      <path class="timeline-a" d="M25.83,45.52a2.33,2.33,0,0,1,.46,1.55,2.6,2.6,0,0,1-.25,1.2,1.68,1.68,0,0,1-.69.75,2.08,2.08,0,0,1-1,.25,2.65,2.65,0,0,1-.58-.06,1.54,1.54,0,0,1-.47-.18l.23-.47a1.47,1.47,0,0,0,.81.2,1.3,1.3,0,0,0,1-.41,1.67,1.67,0,0,0,.37-1.18V47a1.15,1.15,0,0,1-.5.42,1.8,1.8,0,0,1-.71.14,1.75,1.75,0,0,1-.74-.16,1.12,1.12,0,0,1-.51-.45,1.22,1.22,0,0,1-.18-.67,1.23,1.23,0,0,1,.19-.69,1.34,1.34,0,0,1,.53-.47,1.73,1.73,0,0,1,.76-.16A1.61,1.61,0,0,1,25.83,45.52ZM25.09,47a.88.88,0,0,0,.34-.29.76.76,0,0,0,.12-.42.71.71,0,0,0-.11-.4.78.78,0,0,0-.35-.29,1.13,1.13,0,0,0-.54-.12,1,1,0,0,0-.67.23.72.72,0,0,0-.25.59.7.7,0,0,0,.26.59,1,1,0,0,0,.69.22A1.19,1.19,0,0,0,25.09,47Z" transform="translate(-0.55 -0.73)"/>
    </g>
    <g>
      <path class="timeline-a" d="M13.93,4.91a.82.82,0,0,1-.32.17,1.21,1.21,0,0,1-.38.06,1,1,0,0,1-.74-.26,1,1,0,0,1-.27-.74V2.39h-.54V1.92h.54v-.7h.58v.7h.91v.47H12.8V4.12a.53.53,0,0,0,.13.39.48.48,0,0,0,.37.14.72.72,0,0,0,.45-.15Z" transform="translate(-0.55 -0.73)"/>
      <path class="timeline-a" d="M17.38,3.7H14.8a1,1,0,0,0,.36.68,1.33,1.33,0,0,0,1.71-.13l.31.37a1.27,1.27,0,0,1-.53.38,1.89,1.89,0,0,1-.72.14A1.83,1.83,0,0,1,15,4.93a1.48,1.48,0,0,1-.61-.58,1.69,1.69,0,0,1-.21-.84,1.63,1.63,0,0,1,.21-.83A1.33,1.33,0,0,1,15,2.1a1.69,1.69,0,0,1,1.63,0,1.42,1.42,0,0,1,.56.58,1.78,1.78,0,0,1,.2.85S17.38,3.63,17.38,3.7ZM15.12,2.63a1,1,0,0,0-.32.66h2a1.1,1.1,0,0,0-.33-.66,1.09,1.09,0,0,0-1.39,0Z" transform="translate(-0.55 -0.73)"/>
      <path class="timeline-a" d="M19.18,2a1.74,1.74,0,0,1,.72-.14v.56h-.14a1,1,0,0,0-.73.28,1.11,1.11,0,0,0-.27.8V5.1h-.57V1.92h.55v.53A1.05,1.05,0,0,1,19.18,2Z" transform="translate(-0.55 -0.73)"/>
      <path class="timeline-a" d="M22.77,2.21a1.28,1.28,0,0,1,.35,1V5.1h-.55V4.68a.87.87,0,0,1-.41.34,1.54,1.54,0,0,1-.63.12,1.36,1.36,0,0,1-.86-.26.84.84,0,0,1-.32-.68.84.84,0,0,1,.31-.68,1.5,1.5,0,0,1,1-.25h.91V3.16a.74.74,0,0,0-.21-.57.89.89,0,0,0-.64-.2,1.71,1.71,0,0,0-.55.09,1.56,1.56,0,0,0-.46.25l-.24-.43A1.65,1.65,0,0,1,21,2a2.48,2.48,0,0,1,.73-.11A1.47,1.47,0,0,1,22.77,2.21Zm-.58,2.33a.79.79,0,0,0,.35-.41V3.68h-.89c-.48,0-.73.17-.73.5a.42.42,0,0,0,.19.37.77.77,0,0,0,.51.14A1.05,1.05,0,0,0,22.19,4.54Z" transform="translate(-0.55 -0.73)"/>
      <path class="timeline-a" d="M26.54,4.63V5.1H23.88V4.73l1.88-2.34H23.92V1.92H26.5V2.3L24.62,4.63Z" transform="translate(-0.55 -0.73)"/>
    </g>
    <circle class="timeline-b" cx="34.99" cy="46.64" r="2.88"/>
    <rect class="timeline-a" x="34.57" y="5.22" width="0.84" height="39.02"/>
    <circle class="timeline-a" cx="34.99" cy="2.88" r="2.88"/>
  </g>
</svg>
