<svg version="1.1" xmlns="http://www.w3.org/2000/svg" x="0px" y="0px"
	viewBox="0 0 261.8 226.7" style="enable-background:new 0 0 261.8 226.7;" xml:space="preserve">
	<style type="text/css">
		.st0{fill:#FFFFFF;}
		.st1{fill:#6523B8;}
	</style>
	<g transform="matrix(1.3333 0 0 -1.3333 -76.311 313.34)">
		<g transform="translate(178.06 235.01)">
			<path class="st0" d="M0,0l-22.7-39.3L-45.3,0h-75.5l98.2-170L75.5,0H0z"/>
		</g>
		<g transform="translate(178.06 235.01)">
			<g>
				<polygon class="st1" points="-79,-1.5 -46.2,-1.5 -22.7,-42.3 0.9,-1.5 33.6,-1.5 -22.7,-99 			"/>
				<path class="st0" d="M31-3l-53.7-93L-76.4-3h29.3l21.8-37.8l2.6-4.5l2.6,4.5L1.7-3H31 M36.2,0H0l-22.7-39.3L-45.3,0h-36.2
					l58.9-102L36.2,0L36.2,0z"/>
			</g>
		</g>
	</g>
</svg>
