<svg xmlns="http://www.w3.org/2000/svg" viewBox="0 0 20.67 3.87">
  <defs>
    <style>
      .a {
        fill: #fff;
      }
    </style>
  </defs>
  <g>
    <path class="a" d="M2.05,2.4l.86-.86L2.34,1l-.88.88L.57,1,0,1.52l.89.89L0,3.3l.57.56L1.46,3l.88.89.58-.58Zm-.58.11-.94,1-.1-.09,1-1-1-1L.5,1.36l1,1,.94-1,.1.1-.95,1,1,1-.08.08Z"/>
    <g>
      <path class="a" d="M4,0V2.19c0,.83.36,1.18.86,1.18s.9-.36.9-1.18V0h.48V2.16c0,1.13-.6,1.6-1.4,1.6S3.51,3.33,3.51,2.18V0Z"/>
      <path class="a" d="M6.94,1.76c0-.27,0-.49,0-.71h.43l0,.43h0A1,1,0,0,1,8.26,1c.37,0,.94.22.94,1.12V3.7H8.72V2.17c0-.43-.16-.78-.62-.78a.68.68,0,0,0-.64.49.72.72,0,0,0,0,.22V3.7H6.94Z"/>
      <path class="a" d="M10.42.3a.28.28,0,0,1-.3.3A.29.29,0,0,1,9.83.3a.29.29,0,0,1,.3-.3A.28.28,0,0,1,10.42.3ZM9.89,3.7V1.05h.48V3.7Z"/>
      <path class="a" d="M11.65.29v.76h.69v.36h-.69V2.84c0,.33.09.52.36.52a1.47,1.47,0,0,0,.28,0l0,.36a1.13,1.13,0,0,1-.42.06.66.66,0,0,1-.52-.2,1,1,0,0,1-.19-.69V1.41h-.41V1.05h.41V.41Z"/>
      <path class="a" d="M12.65,3.41A.32.32,0,0,1,13,3.07a.32.32,0,0,1,.32.34.32.32,0,0,1-.32.35A.33.33,0,0,1,12.65,3.41Z"/>
      <path class="a" d="M13.8,1.76c0-.27,0-.49,0-.71h.43l0,.43h0A1,1,0,0,1,15.12,1c.37,0,.94.22.94,1.12V3.7h-.48V2.17c0-.43-.16-.78-.61-.78a.68.68,0,0,0-.65.49.73.73,0,0,0,0,.22V3.7H13.8Z"/>
      <path class="a" d="M17,2.46a.85.85,0,0,0,.91.92,1.68,1.68,0,0,0,.73-.14l.08.35a2.1,2.1,0,0,1-.88.16,1.22,1.22,0,0,1-1.3-1.33A1.29,1.29,0,0,1,17.8,1a1.12,1.12,0,0,1,1.09,1.25c0,.09,0,.17,0,.22Zm1.41-.35a.69.69,0,0,0-.67-.78.8.8,0,0,0-.74.78Z"/>
      <path class="a" d="M20,.29v.76h.7v.36H20V2.84c0,.33.1.52.37.52a1.58,1.58,0,0,0,.28,0l0,.36a1.19,1.19,0,0,1-.43.06.67.67,0,0,1-.52-.2,1,1,0,0,1-.19-.69V1.41h-.41V1.05h.41V.41Z"/>
    </g>
  </g>
</svg>
