<svg xmlns="http://www.w3.org/2000/svg" viewBox="0 0 800 30.9">
	<clipPath id="side-menu-horizontal-wave-mask">
		<path d="M-2200,30.9h200h200h200h200h200h200h200h200h200h200H0h200h200h200h200V15.4c0,0-51.2,12.2-100,12.2
			c-54.4,0-100-12.2-100-12.2S554.4,3.2,500,3.2c-48.8,0-100,12.2-100,12.2s-51.2,12.2-100,12.2c-54.4,0-100-12.2-100-12.2
			S154.4,3.2,100,3.2C51.2,3.2,0,15.4,0,15.4s-51.2,12.2-100,12.2c-54.4,0-100-12.2-100-12.2S-245.6,3.2-300,3.2
			c-48.8,0-100,12.2-100,12.2s-51.2,12.2-100,12.2c-54.4,0-100-12.2-100-12.2S-645.6,3.2-700,3.2c-48.8,0-100,12.2-100,12.2
			s-51.2,12.2-100,12.2c-54.4,0-100-12.2-100-12.2s-45.6-12.2-100-12.2c-48.8,0-100,12.2-100,12.2s-51.2,12.2-100,12.2
			c-54.4,0-100-12.2-100-12.2s-45.6-12.2-100-12.2c-48.8,0-100,12.2-100,12.2s-51.2,12.3-100,12.3c-54.4,0-100-12.2-100-12.2
			s-45.6-12.2-100-12.2c-48.8,0-100,12.2-100,12.2s-51.2,12.2-100,12.2c-54.4,0-100-12.2-100-12.2s-45.6-12.2-100-12.2
			c-48.8,0-100,12.2-100,12.2v15.4H-2200z"/>
	</clipPath>
</svg>
