<svg xmlns="http://www.w3.org/2000/svg" viewBox="0 0 800 30.9">
	<clipPath id="modal-wave-svg-mask">
		<path d="M600,0H400H200H0h-200h-200h-200h-200h-200h-200h-200h-200h-200h-200h-200h-200v15.5c0,0,51.2-12.2,100-12.2
			c54.4,0,100,12.2,100,12.2s45.6,12.2,100,12.2c48.8,0,100-12.2,100-12.2s51.2-12.2,100-12.2c54.4,0,100,12.2,100,12.2
			s45.6,12.2,100,12.2c48.8,0,100-12.2,100-12.2s51.2-12.2,100-12.2c54.4,0,100,12.2,100,12.2s45.6,12.2,100,12.2
			c48.8,0,100-12.2,100-12.2s51.2-12.2,100-12.2c54.4,0,100,12.2,100,12.2s45.6,12.2,100,12.2c48.8,0,100-12.2,100-12.2
			s51.2-12.2,100-12.2c54.4,0,100,12.2,100,12.2s45.6,12.2,100,12.2c48.8,0,100-12.2,100-12.2s51.2-12.2,100-12.2
			c54.4,0,100,12.2,100,12.2s45.6,12.2,100,12.2c48.8,0,100-12.2,100-12.2S51.2,3.2,100,3.2c54.4,0,100,12.2,100,12.2
			s45.6,12.2,100,12.2c48.8,0,100-12.2,100-12.2S451.2,3.2,500,3.2c54.4,0,100,12.2,100,12.2s45.6,12.2,100,12.2
			c48.8,0,100-12.2,100-12.2V0H600z"/>
	</clipPath>
</svg>
