<svg id="vertical-wave-svg" xmlns="http://www.w3.org/2000/svg" viewBox="0 0 33 800">
	<path d="M33,3000v-200v-200v-200v-200v-200v-200v-200v-200v-200v-200V800V600V400V200V0H17.5c0,0,12.2,51.2,12.2,100
		c0,54.4-12.2,100-12.2,100S5.3,245.6,5.3,300c0,48.8,12.2,100,12.2,100s12.2,51.2,12.2,100c0,54.4-12.2,100-12.2,100
		S5.3,645.6,5.3,700c0,48.8,12.2,100,12.2,100s12.2,51.2,12.2,100c0,54.4-12.2,100-12.2,100s-12.2,45.6-12.2,100
		c0,48.8,12.2,100,12.2,100s12.2,51.2,12.2,100c0,54.4-12.2,100-12.2,100s-12.2,45.6-12.2,100c0,48.8,12.2,100,12.2,100
		s12.2,51.2,12.2,100c0,54.4-12.2,100-12.2,100s-12.2,45.6-12.2,100c0,48.8,12.2,100,12.2,100s12.2,51.2,12.2,100
		c0,54.4-12.2,100-12.2,100s-12.2,45.6-12.2,100c0,48.8,12.2,100,12.2,100s12.3,51.2,12.3,100c0,54.4-12.2,100-12.2,100
		s-12.2,45.6-12.2,100c0,48.8,12.2,100,12.2,100s12.2,51.2,12.2,100c0,54.4-12.2,100-12.2,100s-12.2,45.6-12.2,100
		c0,48.8,12.2,100,12.2,100H33V3000z"/>
</svg>
