<svg viewBox="0 0 100 70">
  <defs>
    <style>
      .gbflag-cls-1 {
        fill: #fff;
      }

      .gbflag-cls-2 {
        fill: #df0914;
      }

      .gbflag-cls-3 {
        fill: none;
        stroke: #27275b;
        stroke-miterlimit: 10;
        stroke-width: 4px;
      }

      .gbflag-cls-4 {
        fill: #27275b;
      }
    </style>
  </defs>
  <g>
    <rect class="gbflag-cls-1" x="2" y="2" width="92.55" height="61.62" rx="10.24"/>
    <polygon class="gbflag-cls-2" points="93.69 28.19 52.9 28.19 52.9 3.01 43.65 3.01 43.65 28.19 2.86 28.19 2.86 37.43 43.65 37.43 43.65 62.11 52.9 62.11 52.9 37.43 93.69 37.43 93.69 28.19"/>
    <polyline class="gbflag-cls-2" points="36.84 39.83 6.28 59.58 8.72 62.29 41.41 39.76"/>
    <polygon class="gbflag-cls-2" points="30.85 25.8 4.61 8.62 6.61 5.62 36.86 25.8 36.86 25.8 30.85 25.8"/>
    <polygon class="gbflag-cls-2" points="61.04 25.14 90.39 5.86 86.61 3.62 54.86 25.14 54.86 25.14 61.04 25.14"/>
    <polygon class="gbflag-cls-2" points="67.6 39.5 92.61 55.62 91.61 59.62 61.59 39.5 61.59 39.5 67.6 39.5"/>
    <rect class="gbflag-cls-3" x="2" y="2" width="92.55" height="61.62" rx="10.24"/>
    <polygon class="gbflag-cls-4" points="41.2 42.14 41.2 61.95 11.81 61.95 41.2 42.14"/>
    <polygon class="gbflag-cls-4" points="41.2 23.4 41.2 3.59 11.81 3.59 41.2 23.4"/>
    <polygon class="gbflag-cls-4" points="54.9 23.4 54.9 3.59 84.28 3.59 54.9 23.4"/>
    <polygon class="gbflag-cls-4" points="54.9 41.97 54.9 61.78 84.28 61.78 54.9 41.97"/>
    <polygon class="gbflag-cls-4" points="3.48 10.77 3.48 26.04 27.08 26.04 3.48 10.77"/>
    <polygon class="gbflag-cls-4" points="3.48 54.77 3.48 39.5 27.08 39.5 3.48 54.77"/>
    <polygon class="gbflag-cls-4" points="93.12 54.77 93.12 39.5 69.51 39.5 93.12 54.77"/>
    <polygon class="gbflag-cls-4" points="93.12 10.61 93.12 25.88 69.51 25.88 93.12 10.61"/>
  </g>
</svg>