<svg xmlns="http://www.w3.org/2000/svg" viewBox="0 0 17.01 17.01">
  <defs>
    <style>
    .cls-1 {
      fill:#fff;
    }
    </style>
  </defs>
  <g>
    <g>
      <path class="cls-1" d="M9.72,7.46a4.59,4.59,0,0,1-.48,1.88c-.72,1.4-2.17,1.39-2.17-.1a4.27,4.27,0,0,1,.48-1.83C8.28,6,9.72,6.26,9.72,7.46Zm7.29,1A8.51,8.51,0,1,1,8.51,0,8.51,8.51,0,0,1,17,8.51Zm-3.54-.85c0-2.3-1.87-4-4.44-4-3.52,0-5.49,2.23-5.49,5,0,2.61,1.75,4.62,5,4.62a7,7,0,0,0,3.63-.91l-.48-.7a5.6,5.6,0,0,1-3,.8A3.76,3.76,0,0,1,4.59,8.63c0-4.05,4.53-4.79,6.53-3.59a3.22,3.22,0,0,1,.41,5c-.73.58-1.56.57-1.29-.54,0,0,.86-3.18,1-3.52h-1L10,6.67a1.36,1.36,0,0,0-1.35-.92c-1.44,0-2.64,1.56-2.64,3.39,0,1.23.64,2,1.68,2a1.88,1.88,0,0,0,1.68-1C9.2,12.21,13.47,11.26,13.47,7.66Z"/>
    </g>
  </g>
</svg>