<svg xmlns="http://www.w3.org/2000/svg" viewBox="0 0 514.41 501.71">
  <defs>
    <style>
      .cls-1, .cls-2 {
        fill: #fff;
      }

      .cls-1 {
        fill-rule: evenodd;
      }
    </style>
  </defs>
  <g>
    <path class="cls-1" d="M265.49,25.14c-142,0-257.21,115.15-257.21,257.2C8.28,396,82,492.39,184.17,526.41c12.86,2.37,17.58-5.59,17.58-12.38,0-6.13-.24-26.39-.35-47.89-71.56,15.56-86.65-30.34-86.65-30.34-11.7-29.73-28.56-37.64-28.56-37.64C62.85,382.2,88,382.53,88,382.53c25.82,1.81,39.42,26.51,39.42,26.51,22.94,39.31,60.17,27.95,74.85,21.37,2.31-16.62,9-28,16.33-34.39-57.13-6.5-117.19-28.56-117.19-127.11,0-28.08,10-51,26.51-69-2.67-6.48-11.48-32.64,2.49-68.07,0,0,21.6-6.91,70.75,26.37a243.82,243.82,0,0,1,128.81,0c49.09-33.28,70.66-26.37,70.66-26.37,14,35.43,5.2,61.59,2.53,68.07,16.49,18,26.47,41,26.47,69,0,98.79-60.17,120.54-117.45,126.91,9.23,8,17.44,23.63,17.44,47.63,0,34.41-.29,62.11-.29,70.58,0,6.85,4.63,14.87,17.66,12.34,102.15-34.05,175.75-130.42,175.75-244C522.69,140.29,407.53,25.14,265.49,25.14Z" transform="translate(-8.28 -25.14)"/>
    <path class="cls-2" d="M105.7,394.43c-.57,1.28-2.58,1.66-4.41.78s-2.91-2.58-2.31-3.86,2.57-1.68,4.43-.8,2.93,2.6,2.29,3.88Zm-3.17-2.35" transform="translate(-8.28 -25.14)"/>
    <path class="cls-2" d="M116.12,406.05c-1.23,1.13-3.63.61-5.26-1.19s-2-4.19-.75-5.35,3.59-.6,5.28,1.19,2,4.2.73,5.35Zm-2.46-2.63" transform="translate(-8.28 -25.14)"/>
    <path class="cls-2" d="M126.26,420.86c-1.58,1.1-4.16.07-5.75-2.22s-1.58-5,0-6.13,4.13-.11,5.75,2.16,1.57,5.07,0,6.19Zm0,0" transform="translate(-8.28 -25.14)"/>
    <path class="cls-2" d="M140.15,435.17c-1.41,1.56-4.41,1.14-6.61-1s-2.87-5-1.46-6.57,4.45-1.12,6.66,1,2.91,5,1.41,6.57Zm0,0" transform="translate(-8.28 -25.14)"/>
    <path class="cls-2" d="M159.32,443.48c-.63,2-3.52,2.93-6.43,2.07s-4.81-3.24-4.22-5.27,3.51-3,6.44-2.07,4.81,3.22,4.21,5.27Zm0,0" transform="translate(-8.28 -25.14)"/>
    <path class="cls-2" d="M180.37,445c.07,2.12-2.4,3.88-5.46,3.92s-5.56-1.65-5.6-3.73,2.42-3.89,5.49-3.94,5.57,1.65,5.57,3.75Zm0,0" transform="translate(-8.28 -25.14)"/>
    <path class="cls-2" d="M200,441.69c.36,2.07-1.76,4.19-4.8,4.76s-5.75-.73-6.13-2.78,1.79-4.25,4.77-4.8,5.77.72,6.16,2.82Zm0,0" transform="translate(-8.28 -25.14)"/>
  </g>
</svg>
