<svg xmlns="http://www.w3.org/2000/svg" viewBox="0 0 16.92 17.01">
  <defs>
    <style>
    .cls-1 {
      fill:#fff;fill-rule:evenodd;
    }
    </style>
  </defs>
  <g>
    <g>
      <path class="cls-1" d="M8.46,0A8.51,8.51,0,1,1,0,8.51,8.49,8.49,0,0,1,8.46,0m1.8,11.34H6.66a10.76,10.76,0,0,0,1.8,4.07,10.87,10.87,0,0,0,1.8-4.07m-5,0H2a7,7,0,0,0,4.76,4.05,12.32,12.32,0,0,1-1.54-4.05m9.7,0H11.7a12.43,12.43,0,0,1-1.53,4,7.11,7.11,0,0,0,4.75-4M5.05,7.09H1.55a7.1,7.1,0,0,0,0,2.83H5a13.39,13.39,0,0,1,0-2.83m5.4,0h-4a12.76,12.76,0,0,0,0,2.83h4.06a13.39,13.39,0,0,0,0-2.83m4.92,0h-3.5a14.09,14.09,0,0,1,0,2.83h3.47a7.28,7.28,0,0,0,0-2.83M6.8,1.61A7,7,0,0,0,2,5.67H5.28A14.36,14.36,0,0,1,6.8,1.61m1.66,0A13.08,13.08,0,0,0,6.72,5.67h3.47A13.14,13.14,0,0,0,8.46,1.58m1.67,0a14.73,14.73,0,0,1,1.51,4.05h3.28a7.14,7.14,0,0,0-4.79-4"/>
    </g>
  </g>
</svg>